<svg xmlns="http://www.w3.org/2000/svg" xmlns:xlink="http://www.w3.org/1999/xlink" width="800" zoomAndPan="magnify" viewBox="0 0 600 599.999999" height="800" preserveAspectRatio="xMidYMid meet" version="1.0"><defs><clipPath id="08ec1e6d77"><path d="M 34.246094 215 L 591.996094 215 L 591.996094 436.621094 L 34.246094 436.621094 Z M 34.246094 215 " clip-rule="nonzero"/></clipPath></defs><path fill="#ffffff" d="M 567.398438 433.589844 C 567.074219 440.523438 567.191406 444.097656 567.832031 444.203125 C 568.273438 444.3125 568.816406 443.011719 569.5625 440.304688 C 572.707031 447.453125 574.871094 450.921875 576.183594 450.597656 C 577.6875 450.164062 577.90625 444.421875 576.722656 433.15625 C 573.570312 433.265625 570.539062 433.375 567.398438 433.589844 Z M 9.140625 459.585938 C 8.597656 461.425781 8.054688 464.136719 7.835938 467.601562 C 7.621094 472.476562 8.378906 477.242188 9.140625 477.242188 C 9.679688 477.242188 9.785156 474.425781 11.953125 470.960938 C 12.820312 469.660156 13.6875 468.683594 14.230469 468.035156 C 15.097656 469.660156 15.742188 470.417969 16.179688 470.308594 C 16.9375 470.09375 16.9375 466.734375 16.179688 460.128906 Z M 111.277344 394.59375 C 112.6875 393.621094 114.527344 392.320312 116.378906 390.804688 C 118.21875 389.179688 118.640625 388.636719 118.542969 388.097656 C 118.425781 386.148438 113.445312 385.0625 113.015625 384.957031 C 118.761719 380.40625 119.941406 378.78125 119.726562 378.347656 C 119.300781 377.589844 113.445312 379.214844 110.304688 383.65625 C 108.03125 386.796875 107.8125 390.261719 107.8125 391.996094 C 108.898438 392.863281 110.089844 393.730469 111.277344 394.59375 Z M 52.03125 383.980469 C 49.324219 385.496094 46.828125 386.039062 45.207031 386.253906 C 43.90625 386.796875 43.039062 387.878906 42.824219 389.179688 C 42.609375 390.804688 43.582031 392.429688 45.207031 393.078125 L 45.207031 403.695312 C 45.316406 403.910156 46.613281 405.644531 48.996094 405.753906 C 51.488281 405.859375 53.007812 403.800781 53.113281 403.695312 L 53.113281 396.871094 C 55.390625 396.21875 56.578125 395.027344 57.230469 394.269531 C 59.398438 391.671875 59.398438 388.203125 59.285156 382.464844 C 59.285156 380.296875 59.070312 378.566406 58.964844 377.371094 C 57.988281 378.78125 55.933594 381.8125 52.03125 383.980469 Z M 379.367188 99.320312 C 378.511719 98.558594 378.066406 97.695312 377.851562 97.15625 C 377.851562 96.933594 377.644531 95.53125 376.34375 94.550781 C 374.816406 93.578125 373.191406 94.121094 373.09375 94.121094 C 372.226562 94.769531 370.160156 95.960938 367.234375 96.289062 C 364.429688 96.613281 362.261719 95.851562 361.277344 95.417969 C 361.492188 96.933594 361.9375 99.640625 363.886719 102.351562 C 364.742188 103.652344 366.8125 106.46875 370.699219 107.335938 C 373.851562 108.09375 376.441406 107.121094 377.523438 106.683594 C 377.96875 108.632812 378.390625 110.585938 378.824219 112.425781 C 379.59375 112.425781 381.761719 112.210938 383.386719 110.585938 C 385.550781 108.308594 385.769531 104.300781 383.601562 100.835938 C 382.84375 100.945312 380.992188 100.726562 379.367188 99.320312 Z M 550.734375 498.796875 L 548.027344 435.757812 L 509.132812 434.996094 L 506.75 498.6875 L 513.042969 541.472656 L 524.957031 541.472656 L 523.429688 494.789062 L 529.171875 457.960938 L 536.535156 501.398438 L 546.5 535.839844 L 558.957031 535.839844 Z M 471.878906 127.59375 L 488.007812 97.046875 L 481.835938 93.910156 L 461.050781 123.042969 L 430.816406 118.820312 C 430.179688 118.601562 424.101562 116.546875 419.984375 119.683594 C 415.554688 123.15625 414.679688 131.925781 420.527344 138.964844 C 438.507812 138.859375 456.378906 138.859375 474.371094 138.75 L 505.460938 138.75 L 504.160156 129.652344 Z M 45.976562 483.199219 C 45.867188 483.742188 45.109375 487.421875 44.128906 492.296875 Z M 61.570312 471.285156 C 63.085938 485.039062 64.605469 498.796875 66.121094 512.554688 L 59.949219 561.839844 L 49.65625 561.839844 L 49.65625 514.9375 C 47.816406 507.460938 45.867188 499.988281 44.027344 492.515625 C 41.75 504.429688 38.171875 523.601562 38.171875 523.601562 L 27.667969 556.855469 L 16.1875 556.855469 L 24.417969 517.859375 L 25.070312 470.203125 C 29.726562 469.007812 36.445312 467.710938 44.671875 468.144531 C 51.609375 468.46875 57.347656 469.875 61.570312 471.285156 Z M 206.5 45.164062 C 203.347656 43.425781 200.867188 41.476562 199.125 39.851562 C 198.800781 40.394531 194.042969 47.761719 197.390625 54.042969 C 197.933594 55.015625 198.800781 56.316406 200.328125 57.507812 C 199.882812 60.867188 199.460938 64.117188 199.125 67.472656 C 199.242188 67.6875 200.75 70.617188 204 70.9375 C 206.5 71.265625 208.992188 69.855469 210.292969 67.582031 C 210.171875 64.765625 209.957031 61.839844 209.847656 59.023438 C 210.714844 58.265625 212.457031 56.535156 213.324219 53.71875 C 214.082031 51.335938 213.867188 49.273438 213.640625 48.300781 C 211.582031 47.648438 209.089844 46.675781 206.5 45.164062 Z M 376.117188 111.339844 C 378.183594 116.652344 380.230469 121.957031 382.300781 127.261719 C 379.90625 128.027344 377.425781 128.78125 375.03125 129.429688 C 365.285156 129.867188 357.269531 130.40625 351.746094 130.839844 C 342.320312 131.59375 333.773438 132.464844 333.65625 131.707031 C 333.65625 131.378906 334.738281 130.949219 335.722656 130.734375 C 330.730469 130.511719 328.238281 130.191406 328.238281 129.753906 C 328.140625 128.671875 340.695312 126.722656 365.824219 124.125 C 367.015625 123.472656 368.4375 122.609375 369.726562 121.414062 C 373.636719 117.734375 375.359375 113.722656 376.117188 111.339844 " fill-opacity="1" fill-rule="nonzero"/><path fill="#0f0e0c" d="M 433.417969 100.511719 C 428.101562 95.207031 420.746094 101.59375 411.851562 96.71875 C 404.171875 92.5 404.5 84.804688 397.457031 83.617188 C 393.4375 82.964844 393.007812 85.347656 387.167969 85.785156 C 377.734375 86.539062 374.050781 80.582031 367.886719 81.773438 C 364.734375 82.421875 360.402344 85.019531 356.296875 94.769531 L 362.136719 99.101562 C 361.59375 97.699219 361.386719 96.394531 361.269531 95.53125 C 362.253906 95.964844 364.421875 96.71875 367.226562 96.394531 C 370.152344 96.074219 372.21875 94.878906 373.085938 94.226562 C 373.183594 94.125 374.808594 93.582031 376.335938 94.664062 C 377.636719 95.53125 377.839844 97.046875 377.839844 97.261719 C 378.058594 97.804688 378.503906 98.671875 379.359375 99.429688 C 380.984375 100.949219 382.835938 101.054688 383.472656 101.054688 C 384.882812 103.21875 385.316406 105.710938 384.882812 107.769531 L 385.855469 108.09375 C 387.382812 106.039062 389.429688 105.710938 389.429688 105.710938 C 391.5 105.601562 394.207031 105.824219 395.832031 107.664062 C 396.796875 108.636719 397.132812 109.828125 397.011719 112.320312 L 418.894531 120.660156 C 426.042969 122.285156 432.878906 119.140625 435.367188 113.726562 C 437.417969 109.503906 436.667969 103.761719 433.417969 100.511719 Z M 365.71875 123.910156 Z M 329.855469 129.429688 C 330.84375 129.542969 332.566406 129.757812 335.714844 129.867188 C 336.03125 129.867188 336.355469 130.195312 336.355469 130.515625 C 336.355469 130.839844 336.257812 131.054688 336.03125 131.277344 C 338.425781 131.167969 342.433594 130.839844 346.429688 130.515625 C 348.171875 130.410156 349.894531 130.195312 351.640625 130.082031 C 359.222656 129.542969 367.007812 129 374.925781 128.675781 L 381.425781 126.722656 L 376.214844 113.292969 C 374.808594 116.542969 372.761719 119.46875 370.152344 121.746094 C 368.96875 122.828125 367.550781 123.800781 366.046875 124.558594 C 365.925781 124.558594 365.816406 124.667969 365.816406 124.667969 C 341.230469 127.265625 332.566406 128.675781 329.855469 129.429688 Z M 335.390625 132.679688 C 333.324219 132.679688 332.890625 132.359375 332.78125 131.820312 C 332.78125 131.597656 332.78125 131.382812 332.890625 131.277344 C 327.808594 130.953125 327.367188 130.410156 327.367188 129.757812 C 327.269531 128.675781 327.269531 127.375 365.503906 123.367188 C 366.804688 122.613281 368.09375 121.746094 369.175781 120.765625 C 372.003906 118.277344 374.167969 114.917969 375.46875 111.128906 C 375.566406 110.800781 375.792969 110.695312 376.109375 110.695312 C 376.433594 110.695312 376.648438 110.914062 376.757812 111.128906 L 382.933594 127.050781 C 383.050781 127.265625 383.050781 127.484375 382.933594 127.589844 C 382.835938 127.808594 382.714844 127.917969 382.511719 127.917969 L 375.253906 130.082031 L 375.023438 130.082031 C 367.128906 130.410156 359.320312 130.839844 351.738281 131.492188 C 349.894531 131.597656 348.171875 131.820312 346.546875 131.925781 C 340.6875 132.359375 337.339844 132.679688 335.390625 132.679688 " fill-opacity="1" fill-rule="nonzero"/><path fill="#ffffff" d="M 241.578125 421.78125 L 525.585938 421.78125 C 539.453125 421.78125 550.945312 410.410156 550.945312 396.4375 L 550.945312 157.8125 C 550.945312 143.949219 539.570312 132.464844 525.585938 132.464844 L 98.816406 132.464844 C 84.957031 132.464844 73.472656 143.839844 73.472656 157.8125 L 73.472656 396.546875 C 73.472656 410.410156 84.847656 421.890625 98.816406 421.890625 L 215.164062 421.890625 M 241.582031 421.78125 L 226.535156 421.78125 " fill-opacity="1" fill-rule="nonzero"/><path fill="#f97316" d="M 199.007812 67.476562 C 195 67.910156 187.09375 69.425781 179.296875 75.058594 C 167.703125 83.394531 164.128906 95.097656 163.167969 98.671875 L 163.167969 119.25 L 180.378906 127.917969 L 230.203125 127.917969 C 236.0625 124.339844 241.792969 120.765625 247.65625 117.195312 C 247.113281 111.34375 246.453125 105.496094 245.910156 99.539062 C 245.695312 97.261719 244.070312 82.75 231.289062 73.757812 C 222.621094 67.691406 213.535156 67.476562 210.285156 67.585938 C 208.984375 69.96875 206.492188 71.265625 203.992188 70.941406 C 200.632812 70.621094 199.117188 67.691406 199.007812 67.476562 Z M 261.292969 465.433594 L 343.839844 465.433594 L 343.839844 414.742188 L 261.292969 414.742188 Z M 419.433594 118.601562 C 412.394531 115.246094 407.207031 111.671875 403.730469 108.851562 C 397.675781 104.089844 393.125 99 387.265625 99.753906 C 385.757812 99.972656 384.460938 100.511719 383.691406 100.949219 C 385.542969 103.117188 385.964844 106.144531 384.773438 108.636719 C 383.691406 110.804688 381.425781 112.324219 378.925781 112.429688 C 378.503906 110.476562 378.058594 108.53125 377.636719 106.6875 C 376.878906 106.90625 376.109375 107.121094 375.46875 107.339844 C 375.253906 108.09375 375.023438 109.179688 374.808594 110.699219 C 374.167969 115.675781 373.402344 120.988281 376.214844 124.238281 C 376.878906 124.996094 378.601562 126.507812 382.175781 126.945312 C 382.835938 127.375 383.59375 127.917969 384.339844 128.347656 C 384.339844 126.722656 384.230469 118.820312 384.339844 112.96875 C 384.460938 106.46875 389.332031 105.714844 389.332031 105.714844 C 391.382812 105.601562 394.089844 105.824219 395.714844 107.664062 C 397.554688 109.503906 397.132812 112.101562 395.507812 122.503906 C 394.523438 128.132812 393.980469 131.382812 393.546875 133.335938 C 395.292969 134.203125 397.132812 134.957031 399.179688 135.714844 C 406.882812 138.75 413.921875 140.15625 419.339844 140.917969 C 420.300781 139.183594 422.46875 135.070312 422.371094 129.433594 C 422.46875 124.34375 420.421875 120.335938 419.433594 118.601562 Z M 17.683594 165.828125 L 17.683594 265.808594 L 93.074219 265.808594 L 93.074219 192.476562 L 67.296875 165.828125 Z M 496.882812 386.90625 L 141.925781 386.90625 C 134.789062 386.90625 128.925781 381.058594 128.925781 373.90625 L 128.925781 176.878906 C 128.925781 169.730469 134.789062 163.878906 141.925781 163.878906 L 496.882812 163.878906 C 504.03125 163.878906 509.878906 169.730469 509.878906 176.878906 L 509.878906 373.800781 C 509.878906 381.058594 504.03125 386.90625 496.882812 386.90625 " fill-opacity="1" fill-rule="nonzero"/><g clip-path="url(#08ec1e6d77)"><path fill="#ffffff" d="M 592.105469 378.5625 L 592.105469 226.917969 C 592.105469 220.3125 586.785156 215.003906 580.191406 215.003906 L 358.777344 215.003906 C 352.179688 215.003906 346.863281 220.3125 346.863281 226.917969 L 346.863281 378.5625 C 346.863281 385.171875 352.179688 390.480469 358.777344 390.480469 L 580.191406 390.480469 C 586.785156 390.371094 592.105469 385.0625 592.105469 378.5625 Z M 209.949219 436.191406 L 47.589844 436.191406 C 40.328125 436.191406 34.371094 430.230469 34.371094 422.976562 L 34.371094 325.597656 C 34.371094 318.339844 40.328125 312.382812 47.585938 312.382812 L 209.945312 312.382812 C 217.203125 312.382812 223.160156 318.339844 223.160156 325.597656 L 223.160156 422.976562 C 223.160156 430.230469 217.320312 436.191406 209.945312 436.191406 " fill-opacity="1" fill-rule="nonzero"/></g><path fill="#ffffff" d="M 206.277344 239.160156 L 154.285156 239.160156 C 150.375 239.160156 147.125 235.910156 147.125 232.011719 L 147.125 227.460938 C 147.125 223.5625 150.375 220.3125 154.285156 220.3125 L 206.277344 220.3125 C 210.164062 220.3125 213.414062 223.5625 213.414062 227.460938 L 213.414062 232.011719 C 213.414062 236.019531 210.164062 239.160156 206.277344 239.160156 Z M 304.304688 356.359375 L 228.039062 356.359375 L 228.039062 344.769531 L 304.304688 344.769531 Z M 338.847656 321.589844 L 228.039062 321.589844 C 227.714844 319.964844 226.738281 316.171875 223.488281 312.816406 C 218.832031 307.941406 212.777344 307.617188 211.464844 307.617188 L 160.339844 307.617188 L 160.339844 298.191406 L 171.617188 298.191406 C 176.804688 289.636719 185.792969 277.71875 199.332031 275.230469 C 217.867188 271.871094 226.53125 289.636719 244.945312 286.820312 C 266.816406 283.351562 270.183594 256.058594 287.9375 256.816406 C 302.992188 257.464844 309.277344 277.503906 324.019531 275.554688 C 330.84375 274.6875 335.933594 269.378906 338.847656 265.371094 Z M 492.875 181.75 C 492.875 185.109375 490.167969 187.816406 486.820312 187.816406 C 483.453125 187.816406 480.742188 185.109375 480.742188 181.75 C 480.742188 178.394531 483.453125 175.683594 486.820312 175.683594 C 490.167969 175.683594 492.875 178.394531 492.875 181.75 Z M 461.460938 175.683594 C 458.117188 175.683594 455.40625 178.394531 455.40625 181.75 C 455.40625 185.109375 458.117188 187.816406 461.460938 187.816406 C 464.832031 187.816406 467.539062 185.109375 467.539062 181.75 C 467.539062 178.394531 464.832031 175.683594 461.460938 175.683594 Z M 439.582031 181.75 C 439.582031 185.109375 436.875 187.816406 433.515625 187.816406 C 430.167969 187.816406 427.460938 185.109375 427.460938 181.75 C 427.460938 178.394531 430.167969 175.683594 433.515625 175.683594 C 436.875 175.683594 439.582031 178.394531 439.582031 181.75 " fill-opacity="1" fill-rule="nonzero"/><path fill="#0f0e0c" d="M 117.554688 409.328125 L 106.296875 409.328125 L 106.296875 375.964844 L 117.554688 375.964844 Z M 98.386719 411.058594 L 87.125 411.058594 L 87.125 357.007812 L 98.386719 357.007812 Z M 78.457031 410.519531 L 67.191406 410.519531 L 67.191406 369.464844 L 78.457031 369.464844 Z M 552.890625 351.160156 C 551.265625 357.550781 545.1875 362.425781 537.824219 362.964844 C 537.824219 361.667969 537.824219 360.367188 537.941406 358.957031 C 538.039062 357.660156 538.265625 356.46875 538.582031 355.382812 C 538.808594 355.167969 541.613281 352.785156 541.191406 349.101562 C 540.855469 346.828125 539.566406 345.527344 539.023438 344.984375 C 538.484375 345.09375 535.871094 345.527344 533.488281 343.902344 C 530.457031 341.953125 530.144531 338.59375 530.023438 338.160156 C 529.058594 338.703125 527.652344 339.679688 526.230469 341.085938 L 526.230469 331.339844 C 527.109375 331.011719 537.398438 327.871094 545.621094 334.371094 C 546.703125 335.128906 555.152344 341.953125 552.890625 351.160156 Z M 448.675781 341.410156 L 448.675781 306.53125 C 459.195312 312.273438 469.703125 317.90625 480.089844 323.648438 C 469.582031 329.605469 459.074219 335.453125 448.675781 341.410156 Z M 361.925781 275.230469 L 361.925781 376.179688 L 563.492188 376.179688 L 563.492188 275.230469 L 361.925781 275.230469 " fill-opacity="1" fill-rule="nonzero"/><path fill="#f97316" d="M 212.65625 356.359375 L 176.707031 356.359375 L 176.707031 361.234375 L 212.65625 361.234375 Z M 152.117188 346.9375 C 145.078125 346.9375 139.335938 352.675781 139.335938 359.71875 C 139.335938 366.757812 145.078125 372.5 152.117188 372.5 C 159.160156 372.5 164.890625 366.757812 164.890625 359.71875 C 164.890625 352.675781 159.160156 346.9375 152.117188 346.9375 Z M 97.734375 316.929688 C 95.136719 316.929688 93.082031 318.988281 93.082031 321.589844 C 93.082031 324.1875 95.136719 326.246094 97.734375 326.246094 C 100.339844 326.246094 102.394531 324.1875 102.394531 321.589844 C 102.394531 318.988281 100.226562 316.929688 97.734375 316.929688 Z M 79.320312 316.929688 C 76.722656 316.929688 74.667969 318.988281 74.667969 321.589844 C 74.667969 324.1875 76.722656 326.246094 79.320312 326.246094 C 81.925781 326.246094 83.980469 324.1875 83.980469 321.589844 C 83.980469 318.988281 81.8125 316.929688 79.320312 316.929688 Z M 60.042969 316.824219 C 57.441406 316.824219 55.386719 318.882812 55.386719 321.480469 C 55.386719 324.082031 57.441406 326.136719 60.042969 326.136719 C 62.640625 326.136719 64.699219 324.082031 64.699219 321.480469 C 64.59375 318.882812 62.53125 316.824219 60.042969 316.824219 Z M 542.695312 255.296875 L 401.667969 255.296875 L 401.667969 261.472656 L 542.695312 261.472656 Z M 485.070312 239.917969 L 401.667969 239.917969 L 401.667969 247.609375 L 485.070312 247.609375 Z M 372.757812 237.101562 C 366.800781 237.101562 362.023438 241.976562 362.023438 247.824219 C 362.023438 253.78125 366.898438 258.546875 372.757812 258.546875 C 378.59375 258.546875 383.46875 253.675781 383.46875 247.824219 C 383.46875 241.976562 378.714844 237.101562 372.757812 237.101562 Z M 215.15625 407.484375 L 143.328125 407.484375 L 143.328125 413.984375 L 215.15625 413.984375 Z M 215.15625 395.355469 L 143.328125 395.355469 L 143.328125 401.851562 L 215.15625 401.851562 Z M 215.15625 389.613281 L 143.328125 389.613281 L 143.328125 383.113281 L 215.15625 383.113281 L 215.15625 389.613281 " fill-opacity="1" fill-rule="nonzero"/><path fill="#ffffff" d="M 505.449219 334.261719 C 512.695312 331.011719 516.28125 328.953125 515.945312 328.195312 C 515.742188 327.65625 513.996094 327.65625 510.648438 328.195312 C 510.324219 318.554688 509.449219 313.574219 507.941406 313.355469 C 506.199219 313.140625 503.707031 318.988281 500.359375 330.796875 Z M 531.230469 344.011719 C 533.492188 345.417969 535.78125 345.09375 536.320312 344.984375 C 536.742188 345.417969 538.042969 346.609375 538.269531 348.667969 C 538.691406 351.917969 536.105469 354.191406 535.878906 354.410156 C 535.660156 355.382812 535.445312 356.46875 535.335938 357.660156 C 534.902344 361.558594 535.5625 364.917969 536.320312 367.191406 C 535.117188 369.574219 532.628906 370.550781 530.6875 369.898438 C 528.945312 369.25 528.292969 367.515625 528.195312 367.191406 L 528.195312 362.101562 C 523.527344 361.992188 521.480469 359.71875 521.039062 359.175781 C 517.367188 354.949219 520.277344 347.800781 522.445312 344.335938 C 524.40625 341.304688 526.898438 339.570312 528.292969 338.703125 C 528.195312 339.136719 528.523438 342.277344 531.230469 344.011719 " fill-opacity="1" fill-rule="nonzero"/><path fill="#ffffff" d="M 180.378906 127.917969 C 175.503906 129.214844 166.621094 132.574219 161.867188 140.808594 C 159.582031 144.816406 158.832031 148.929688 159.039062 163.554688 C 159.160156 171.027344 159.582031 180.777344 160.554688 192.367188 C 165.753906 192.90625 170.847656 193.339844 176.046875 193.882812 L 179.511719 153.695312 L 206.589844 135.609375 L 230.648438 149.582031 L 231.289062 193.882812 L 247.65625 194.964844 C 248.941406 182.726562 249.917969 171.894531 250.6875 162.796875 C 251.542969 150.988281 251.769531 145.898438 249.160156 140.265625 C 245.488281 132.25 238.652344 127.808594 234.320312 125.535156 L 230.203125 127.917969 Z M 395.929688 107.664062 C 397.773438 109.613281 397.339844 112.101562 395.714844 122.5 C 393.882812 133.875 393.546875 135.390625 391.8125 136.910156 C 389.429688 138.964844 386.085938 138.855469 379.464844 138.640625 C 368.527344 138.207031 366.261719 135.5 357.597656 136.367188 C 354.769531 136.691406 351.195312 137.339844 351.097656 136.910156 C 350.980469 136.582031 352.820312 135.714844 354.445312 135.066406 C 346.320312 134.304688 342.214844 133.660156 342.214844 133.117188 C 342.214844 132.574219 346.972656 132.25 356.511719 132.035156 L 384.558594 128.675781 C 384.558594 128.675781 384.460938 119.578125 384.558594 113.078125 C 384.675781 106.578125 389.550781 105.824219 389.550781 105.824219 C 391.597656 105.710938 394.304688 105.925781 395.929688 107.664062 " fill-opacity="1" fill-rule="nonzero"/><path fill="#0f0e0c" d="M 428.871094 176.445312 C 425.933594 176.445312 423.550781 178.828125 423.550781 181.75 C 423.550781 184.675781 425.933594 187.058594 428.871094 187.058594 C 431.792969 187.058594 434.167969 184.675781 434.167969 181.75 C 434.285156 178.828125 431.792969 176.445312 428.871094 176.445312 Z M 428.871094 188.574219 C 425.078125 188.574219 422.046875 185.542969 422.046875 181.75 C 422.046875 177.960938 425.078125 174.925781 428.871094 174.925781 C 432.660156 174.925781 435.683594 177.960938 435.683594 181.75 C 435.683594 185.542969 432.660156 188.574219 428.871094 188.574219 " fill-opacity="1" fill-rule="nonzero"/><path fill="#0f0e0c" d="M 456.804688 176.445312 C 453.878906 176.445312 451.496094 178.828125 451.496094 181.75 C 451.496094 184.675781 453.878906 187.058594 456.804688 187.058594 C 459.742188 187.058594 462.125 184.675781 462.125 181.75 C 462.222656 178.828125 459.742188 176.445312 456.804688 176.445312 Z M 456.804688 188.574219 C 453.015625 188.574219 449.992188 185.542969 449.992188 181.75 C 449.992188 177.960938 453.015625 174.925781 456.804688 174.925781 C 460.597656 174.925781 463.628906 177.960938 463.628906 181.75 C 463.628906 185.542969 460.597656 188.574219 456.804688 188.574219 " fill-opacity="1" fill-rule="nonzero"/><path fill="#0f0e0c" d="M 482.164062 176.445312 C 479.238281 176.445312 476.84375 178.828125 476.84375 181.75 C 476.84375 184.675781 479.238281 187.058594 482.164062 187.058594 C 485.074219 187.058594 487.457031 184.675781 487.457031 181.75 C 487.578125 178.828125 485.195312 176.445312 482.164062 176.445312 Z M 482.164062 188.574219 C 478.371094 188.574219 475.328125 185.542969 475.328125 181.75 C 475.328125 177.960938 478.371094 174.925781 482.164062 174.925781 C 485.953125 174.925781 488.984375 177.960938 488.984375 181.75 C 488.984375 185.542969 485.953125 188.574219 482.164062 188.574219 " fill-opacity="1" fill-rule="nonzero"/><path fill="#0f0e0c" d="M 508.582031 422.542969 C 508.582031 422.109375 508.582031 421.566406 508.699219 421.132812 L 343.722656 421.132812 C 343.722656 421.566406 343.722656 422.109375 343.613281 422.542969 L 344.597656 422.542969 C 344.695312 422.976562 344.804688 423.300781 344.921875 423.734375 L 350.652344 423.734375 L 350.652344 473.015625 L 269.523438 473.015625 L 269.523438 466.410156 C 269.101562 466.410156 268.558594 466.300781 268.117188 466.300781 L 268.117188 473.777344 C 268.117188 474.207031 268.441406 474.535156 268.875 474.535156 L 351.421875 474.535156 C 351.84375 474.535156 352.179688 474.210938 352.179688 473.777344 L 352.179688 423.082031 C 352.179688 422.867188 352.0625 422.757812 351.964844 422.648438 L 508.582031 422.648438 Z M 512.914062 541.472656 C 502.296875 544.941406 497.109375 547.433594 497.328125 548.839844 C 497.652344 550.679688 506.859375 551.007812 524.949219 549.597656 C 524.828125 546.890625 524.828125 544.183594 524.730469 541.472656 Z M 536.644531 345.09375 C 537.070312 345.527344 538.367188 346.71875 538.585938 348.777344 C 539.027344 352.027344 536.417969 354.300781 536.203125 354.519531 C 535.984375 355.492188 535.78125 356.574219 535.660156 357.765625 C 535.5625 359.066406 535.5625 360.257812 535.5625 361.449219 C 542.277344 361.015625 547.792969 356.574219 549.320312 350.726562 C 551.367188 342.386719 543.6875 336.210938 542.699219 335.34375 C 535.238281 329.386719 525.910156 332.3125 525.046875 332.636719 L 525.046875 341.519531 C 526.355469 340.21875 527.65625 339.351562 528.402344 338.921875 C 528.402344 339.351562 528.738281 342.386719 531.542969 344.226562 C 533.820312 345.527344 536.105469 345.203125 536.644531 345.09375 Z M 229.664062 403.261719 C 229.242188 403.261719 228.90625 403.585938 228.90625 404.019531 C 228.90625 404.453125 229.242188 404.777344 229.664062 404.777344 L 507.824219 404.777344 C 513.238281 404.777344 518.230469 402.394531 521.699219 398.171875 C 521.902344 397.84375 521.902344 397.410156 521.578125 397.195312 C 521.253906 396.976562 520.820312 396.976562 520.613281 397.304688 C 517.464844 401.203125 512.816406 403.371094 507.941406 403.371094 L 229.664062 403.371094 Z M 343.839844 414.742188 L 261.292969 414.742188 L 302.5625 437.921875 Z M 141.601562 386.148438 L 212.007812 386.148438 L 212.007812 381.054688 L 141.601562 381.054688 Z M 140.203125 386.90625 L 140.203125 380.40625 C 140.203125 379.972656 140.515625 379.648438 140.960938 379.648438 L 212.777344 379.648438 C 213.199219 379.648438 213.535156 379.972656 213.535156 380.40625 L 213.535156 386.90625 C 213.535156 387.339844 213.199219 387.664062 212.777344 387.664062 L 140.960938 387.664062 C 140.515625 387.664062 140.203125 387.339844 140.203125 386.90625 Z M 480.09375 237.859375 L 398.097656 237.859375 L 398.097656 244.140625 L 480.09375 244.140625 Z M 481.5 236.453125 L 481.5 245.550781 L 396.6875 245.550781 L 396.6875 236.453125 Z M 546.167969 535.84375 C 538.042969 543.097656 534.480469 547.433594 535.445312 548.839844 C 536.644531 550.679688 544.542969 548.191406 559.273438 541.472656 C 558.730469 539.632812 558.191406 537.683594 557.648438 535.84375 Z M 141.601562 410.625 L 212.007812 410.625 L 212.007812 405.535156 L 141.601562 405.535156 Z M 140.203125 404.777344 C 140.203125 404.34375 140.515625 404.019531 140.960938 404.019531 L 212.777344 404.019531 C 213.199219 404.019531 213.535156 404.34375 213.535156 404.777344 L 213.535156 411.277344 C 213.535156 411.710938 213.199219 412.035156 212.777344 412.035156 L 140.960938 412.035156 C 140.515625 412.035156 140.203125 411.710938 140.203125 411.277344 Z M 559.273438 396.4375 L 550.945312 396.4375 C 551.042969 396.871094 550.945312 397.410156 550.726562 397.84375 L 559.816406 397.84375 C 559.492188 397.519531 559.394531 397.195312 559.394531 396.761719 C 559.394531 396.652344 559.273438 396.546875 559.273438 396.4375 Z M 141.601562 398.386719 L 212.007812 398.386719 L 212.007812 393.296875 L 141.601562 393.296875 Z M 140.203125 392.644531 C 140.203125 392.210938 140.515625 391.886719 140.960938 391.886719 L 212.777344 391.886719 C 213.199219 391.886719 213.535156 392.210938 213.535156 392.644531 L 213.535156 399.144531 C 213.535156 399.578125 213.199219 399.902344 212.777344 399.902344 L 140.960938 399.902344 C 140.515625 399.902344 140.203125 399.578125 140.203125 399.144531 Z M 338.847656 386.148438 C 338.425781 384.628906 338.195312 383.113281 338.195312 381.488281 L 338.195312 276.421875 C 333.863281 281.621094 329.21875 284.652344 324.117188 285.304688 C 316.101562 286.386719 310.480469 281.1875 305.0625 276.203125 C 300.070312 271.65625 294.976562 266.890625 288.058594 266.671875 C 279.707031 266.347656 274.613281 272.519531 268.875 279.671875 C 263.144531 286.820312 256.527344 294.941406 245.269531 296.675781 C 235.945312 298.191406 228.90625 294.402344 222.199219 290.71875 C 215.257812 286.925781 208.660156 283.460938 199.550781 285.085938 C 189.585938 286.925781 180.703125 294.183594 172.914062 306.859375 L 211.574219 306.859375 C 221.117188 306.859375 228.90625 314.65625 228.90625 324.1875 L 228.90625 386.253906 L 338.847656 386.253906 Z M 227.398438 324.945312 C 227.398438 315.738281 219.914062 308.265625 210.707031 308.265625 L 56.894531 308.265625 C 47.585938 308.265625 40.003906 315.847656 40.003906 325.164062 L 40.003906 334.914062 L 227.394531 334.914062 Z M 98.597656 271.761719 L 98.597656 199.40625 L 98.273438 199.082031 L 73.46875 199.082031 L 73.46875 173.410156 L 73.144531 173.085938 L 24.617188 173.085938 L 24.617188 271.65625 L 98.597656 271.65625 Z M 584.726562 237.316406 L 584.726562 381.488281 C 584.726562 388.636719 580.070312 394.703125 573.691406 396.976562 C 573.789062 396.4375 573.789062 396.003906 573.570312 395.460938 C 579.203125 393.296875 583.320312 387.878906 583.320312 381.488281 L 583.320312 237.316406 C 583.320312 229.085938 576.605469 222.371094 568.371094 222.371094 L 354.554688 222.371094 C 346.320312 222.371094 339.605469 229.085938 339.605469 237.316406 L 339.605469 381.488281 C 339.605469 389.722656 346.320312 396.4375 354.554688 396.4375 L 508.363281 396.4375 C 508.160156 396.871094 508.160156 397.410156 508.257812 397.84375 L 354.554688 397.84375 C 347.632812 397.84375 341.675781 393.511719 339.28125 387.445312 C 339.183594 387.554688 339.0625 387.554688 338.847656 387.554688 L 228.796875 387.554688 L 228.796875 413.984375 C 228.796875 416.476562 228.253906 418.859375 227.398438 421.023438 L 261.074219 421.023438 C 260.976562 421.457031 260.976562 422 260.976562 422.433594 L 226.738281 422.433594 C 223.707031 428.175781 217.746094 431.964844 210.828125 431.964844 L 62.527344 431.964844 C 62.101562 431.964844 61.773438 431.640625 61.773438 431.207031 C 61.773438 430.773438 62.101562 430.449219 62.53125 430.449219 L 210.710938 430.449219 C 219.917969 430.449219 227.402344 422.976562 227.402344 413.769531 L 227.402344 336.105469 L 40.011719 336.105469 L 40.007812 373.257812 C 42.066406 371.847656 44.773438 370.441406 48.132812 369.789062 C 56.257812 368.492188 62.105469 372.714844 63.1875 373.472656 L 59.285156 380.515625 L 59.179688 380.621094 C 59.070312 379.214844 58.964844 378.023438 58.855469 377.046875 C 57.988281 378.5625 55.820312 381.597656 52.03125 383.761719 C 49.320312 385.28125 46.828125 385.820312 45.203125 386.039062 C 43.90625 386.578125 43.039062 387.664062 42.824219 388.964844 C 42.605469 390.585938 43.578125 392.210938 45.203125 392.863281 L 45.203125 398.167969 C 44.121094 397.628906 41.953125 396.328125 39.898438 394.164062 L 39.898438 403.371094 C 39.898438 403.800781 39.574219 404.128906 39.140625 404.128906 C 38.707031 404.128906 38.382812 403.800781 38.382812 403.371094 L 38.382812 394.378906 C 38.382812 393.945312 38.707031 393.621094 39.140625 393.621094 C 39.246094 393.621094 39.355469 393.621094 39.464844 393.730469 C 38.816406 392.96875 38.164062 392.105469 37.515625 391.019531 C 33.832031 384.847656 35.238281 378.5625 35.675781 377.15625 C 36.109375 376.613281 37.082031 375.421875 38.601562 374.125 C 38.488281 374.015625 38.382812 373.796875 38.382812 373.691406 L 38.382812 324.730469 C 38.382812 314.765625 46.507812 306.640625 56.472656 306.640625 L 72.824219 306.640625 L 72.824219 273.0625 L 23.867188 273.0625 C 23.4375 273.0625 23.109375 272.738281 23.109375 272.304688 L 23.109375 172.328125 C 23.109375 171.894531 23.4375 171.570312 23.867188 171.570312 L 73.476562 171.570312 C 73.691406 171.570312 73.804688 171.675781 74.019531 171.785156 L 99.800781 198.433594 C 99.90625 198.539062 100.015625 198.757812 100.015625 198.972656 L 100.015625 272.304688 C 100.015625 272.738281 99.6875 273.0625 99.257812 273.0625 L 74.234375 273.0625 L 74.234375 306.640625 L 128.171875 306.640625 L 128.171875 180.558594 C 128.171875 171.027344 135.972656 163.230469 145.503906 163.230469 L 159.042969 163.230469 C 159.042969 163.660156 159.160156 164.203125 159.257812 164.636719 L 145.9375 164.636719 C 136.957031 164.636719 129.589844 172.003906 129.589844 180.992188 L 129.589844 198.433594 L 147.246094 198.433594 C 150.496094 196.914062 155.792969 194.964844 163.167969 192.582031 C 166.625 192.90625 169.992188 193.234375 173.460938 193.558594 C 173.242188 195.617188 173.125 197.671875 172.917969 199.730469 C 173.015625 199.296875 173.125 198.867188 173.242188 198.433594 L 233.132812 198.433594 L 233.132812 193.992188 C 236.921875 194.207031 240.714844 194.53125 244.503906 194.75 C 251.003906 196.699219 255.664062 198.214844 258.488281 199.515625 C 257.949219 199.082031 257.40625 198.757812 256.648438 198.433594 L 509.027344 198.433594 L 509.027344 180.992188 C 509.027344 172.003906 501.664062 164.636719 492.660156 164.636719 L 250.789062 164.636719 C 250.90625 164.203125 250.90625 163.660156 250.90625 163.230469 L 493.746094 163.230469 C 503.070312 163.230469 510.652344 170.8125 510.652344 180.125 L 510.652344 215.003906 C 510.652344 215.4375 510.328125 215.761719 509.882812 215.761719 C 509.449219 215.761719 509.125 215.4375 509.125 215.003906 L 509.125 199.949219 L 259.355469 199.949219 C 260.980469 200.816406 261.835938 201.464844 261.738281 202.007812 C 261.402344 203.847656 251.871094 204.066406 233.132812 202.871094 L 233.132812 199.949219 L 172.917969 199.949219 C 172.917969 200.382812 172.800781 200.816406 172.800781 201.25 C 153.421875 203.304688 143.554688 203.523438 143.132812 201.679688 C 143.011719 201.25 143.554688 200.707031 144.539062 199.949219 L 129.472656 199.949219 L 129.472656 306.964844 L 170.957031 306.964844 C 179.082031 293.535156 188.503906 285.734375 199.121094 283.785156 C 208.761719 282.054688 215.800781 285.84375 222.625 289.527344 C 229.449219 293.210938 235.839844 296.675781 244.734375 295.269531 C 255.445312 293.535156 261.621094 286.0625 267.480469 278.695312 C 273.210938 271.546875 278.734375 264.832031 287.832031 265.15625 C 295.316406 265.480469 300.613281 270.355469 305.8125 275.121094 C 311.347656 280.105469 316.4375 284.871094 323.804688 283.894531 C 328.894531 283.246094 333.652344 279.886719 338.101562 274.144531 L 338.101562 237.316406 C 338.101562 228.328125 345.46875 220.960938 354.449219 220.960938 L 524.074219 220.960938 L 524.074219 163.445312 C 524.074219 154.347656 516.707031 146.980469 507.621094 146.980469 L 251.546875 146.980469 C 251.546875 146.546875 251.449219 146.007812 251.328125 145.574219 L 507.824219 145.574219 C 508.910156 145.574219 509.992188 145.679688 510.96875 145.898438 C 509.570312 144.816406 507.621094 141.671875 505.117188 136.582031 C 504.792969 134.304688 504.46875 131.925781 504.152344 129.652344 L 512.496094 129.652344 C 513.785156 139.941406 513.675781 145.464844 512.277344 146.222656 C 519.957031 148.171875 525.589844 155.214844 525.589844 163.445312 L 525.589844 220.960938 L 568.375 220.960938 C 577.484375 220.960938 584.730469 228.328125 584.730469 237.316406 Z M 68.929688 565.304688 C 66.652344 564.761719 63.621094 563.789062 60.046875 561.730469 L 49.757812 561.730469 L 49.757812 570.9375 C 58.097656 570.9375 66.546875 570.828125 74.886719 570.828125 C 74.886719 569.960938 74.777344 568.769531 74.128906 567.796875 C 72.9375 565.953125 70.769531 565.738281 68.929688 565.304688 Z M 398.097656 257.898438 L 537.730469 257.898438 L 537.730469 253.132812 L 398.097656 253.132812 Z M 396.6875 251.832031 L 539.125 251.832031 L 539.125 259.414062 L 396.6875 259.414062 Z M 197.925781 55.019531 C 197.710938 54.691406 197.492188 54.371094 197.382812 54.046875 C 194.039062 47.761719 198.792969 40.394531 199.117188 39.855469 C 200.957031 41.480469 203.339844 43.429688 206.492188 45.164062 C 209.082031 46.570312 211.574219 47.546875 213.535156 48.195312 C 213.738281 49.277344 213.859375 51.339844 213.199219 53.609375 C 212.65625 55.34375 211.789062 56.753906 211.03125 57.726562 C 212.007812 57.1875 218.949219 53.179688 220.035156 45.164062 C 220.574219 40.9375 219.914062 32.925781 213.738281 30.214844 C 209.300781 28.265625 203.570312 29.675781 199.550781 33.792969 C 198.695312 33.570312 193.820312 32.816406 190.570312 35.738281 C 186.238281 39.640625 187.203125 47.546875 191.210938 51.664062 C 193.59375 54.046875 196.527344 54.804688 197.925781 55.019531 Z M 179.296875 164.636719 L 230.960938 164.636719 L 230.960938 163.230469 L 179.511719 163.230469 C 179.511719 163.660156 179.414062 164.203125 179.296875 164.636719 Z M 525.585938 133.222656 C 539.125 133.222656 550.1875 144.273438 550.1875 157.8125 L 550.1875 215.328125 L 551.582031 215.328125 L 551.582031 157.8125 C 551.582031 143.515625 539.894531 131.820312 525.585938 131.820312 L 512.816406 131.820312 C 512.914062 132.25 512.914062 132.792969 512.914062 133.222656 Z M 506.316406 91.742188 C 506.199219 90.332031 499.050781 89.464844 484.75 89.136719 L 482.585938 94.339844 L 488 97.046875 C 500.359375 94.878906 506.414062 93.039062 506.316406 91.742188 Z M 245.269531 132.902344 C 245.367188 133.007812 245.367188 133.117188 245.488281 133.222656 L 323.800781 133.222656 L 326.390625 138.964844 L 357.476562 138.964844 L 357.476562 136.582031 L 353.265625 135.714844 L 328.351562 135.714844 L 316.21875 107.121094 L 312.101562 107.121094 L 323.03125 131.707031 L 244.503906 131.707031 C 244.828125 132.140625 245.042969 132.464844 245.269531 132.902344 Z M 230.203125 127.917969 L 234.320312 99.101562 L 176.046875 99.101562 L 180.378906 127.917969 Z M 34.808594 561.730469 C 32.96875 561.078125 30.367188 559.671875 27.769531 556.855469 L 16.179688 556.855469 L 15.203125 566.386719 C 23.761719 567.253906 32.207031 568.230469 40.769531 569.09375 C 40.871094 567.578125 40.871094 565.628906 39.574219 564.113281 C 38.273438 562.597656 36.761719 562.378906 34.808594 561.730469 Z M 74.234375 157.8125 C 74.234375 144.273438 85.28125 133.222656 98.824219 133.222656 L 168.046875 133.222656 C 168.683594 132.679688 169.226562 132.25 169.996094 131.820312 L 98.824219 131.820312 C 84.527344 131.820312 72.828125 143.515625 72.828125 157.8125 L 72.828125 171.136719 C 73.367188 171.351562 73.804688 171.675781 74.234375 172.109375 Z M 110.738281 163.554688 L 110.738281 305.992188 C 110.738281 306.425781 111.0625 306.75 111.5 306.75 C 111.929688 306.75 112.257812 306.425781 112.257812 305.992188 L 112.257812 163.554688 C 112.257812 154.453125 119.628906 147.089844 128.714844 147.089844 L 159.703125 147.089844 C 159.800781 146.65625 159.921875 146.113281 160.019531 145.679688 L 128.714844 145.679688 C 118.761719 145.679688 110.738281 153.695312 110.738281 163.554688 Z M 224.253906 146.332031 C 224.253906 146.546875 224.15625 146.871094 224.15625 147.089844 L 190.796875 147.089844 C 191.335938 146.65625 191.878906 146.222656 192.300781 145.679688 L 223.386719 145.679688 C 223.617188 145.898438 223.929688 146.113281 224.253906 146.332031 Z M 230.535156 163.230469 L 179.300781 163.230469 L 179.300781 164.636719 L 230.429688 164.636719 C 230.429688 164.203125 230.429688 163.660156 230.535156 163.230469 Z M 89.398438 254.757812 L 89.398438 253.457031 C 89.398438 252.375 88.53125 251.507812 87.449219 251.507812 L 35.238281 251.507812 C 34.15625 251.507812 33.289062 252.375 33.289062 253.457031 L 33.289062 254.757812 C 33.289062 255.839844 34.15625 256.707031 35.238281 256.707031 L 87.449219 256.707031 C 88.53125 256.707031 89.398438 255.839844 89.398438 254.757812 Z M 89.398438 240.566406 L 89.398438 239.269531 C 89.398438 238.183594 88.53125 237.316406 87.449219 237.316406 L 35.238281 237.316406 C 34.15625 237.316406 33.289062 238.183594 33.289062 239.269531 L 33.289062 240.566406 C 33.289062 241.652344 34.15625 242.515625 35.238281 242.515625 L 87.449219 242.515625 C 88.53125 242.625 89.398438 241.652344 89.398438 240.566406 Z M 89.398438 226.488281 L 89.398438 225.1875 C 89.398438 224.101562 88.53125 223.238281 87.449219 223.238281 L 35.238281 223.238281 C 34.15625 223.238281 33.289062 224.101562 33.289062 225.1875 L 33.289062 226.488281 C 33.289062 227.570312 34.15625 228.4375 35.238281 228.4375 L 87.449219 228.4375 C 88.53125 228.542969 89.398438 227.570312 89.398438 226.488281 Z M 89.398438 213.703125 L 89.398438 212.40625 C 89.398438 211.320312 88.53125 210.457031 87.449219 210.457031 L 35.238281 210.457031 C 34.15625 210.457031 33.289062 211.320312 33.289062 212.40625 L 33.289062 213.703125 C 33.289062 214.789062 34.15625 215.65625 35.238281 215.65625 L 87.449219 215.65625 C 88.53125 215.65625 89.398438 214.789062 89.398438 213.703125 Z M 60.804688 192.90625 L 35.238281 192.90625 C 34.15625 192.90625 33.289062 192.042969 33.289062 190.957031 L 33.289062 189.660156 C 33.289062 188.574219 34.15625 187.707031 35.238281 187.707031 L 60.695312 187.707031 C 61.777344 187.707031 62.644531 188.574219 62.644531 189.660156 L 62.644531 190.957031 C 62.753906 191.933594 61.886719 192.90625 60.804688 192.90625 " fill-opacity="1" fill-rule="nonzero"/><path fill="#0f0e0c" d="M 248.738281 140.375 C 246.128906 134.527344 241.359375 129.757812 234.535156 126.183594 L 230.863281 128.457031 C 230.746094 128.570312 230.648438 128.570312 230.53125 128.570312 L 180.824219 128.570312 C 174.960938 130.195312 167.164062 133.765625 162.832031 141.132812 C 160.664062 144.921875 159.917969 148.929688 160.121094 163.554688 C 160.242188 172.867188 160.785156 182.292969 161.542969 191.714844 L 175.71875 193.125 L 179.078125 153.695312 C 179.078125 153.480469 179.199219 153.261719 179.414062 153.15625 L 206.492188 135.066406 C 206.699219 134.957031 207.035156 134.957031 207.242188 135.066406 L 231.289062 149.039062 C 231.503906 149.148438 231.613281 149.363281 231.613281 149.6875 L 232.273438 193.234375 L 247.210938 194.207031 C 248.402344 183.699219 249.375 173.085938 250.144531 162.6875 C 251.109375 150.554688 251.230469 145.898438 248.738281 140.375 Z M 250.027344 139.832031 C 252.625 145.574219 252.527344 150.449219 251.542969 162.6875 C 250.6875 173.300781 249.703125 184.242188 248.519531 194.964844 C 248.519531 195.289062 248.195312 195.617188 247.75 195.617188 L 231.40625 194.53125 C 231.070312 194.53125 230.746094 194.207031 230.746094 193.882812 L 230.105469 150.015625 L 206.820312 136.472656 L 180.378906 154.128906 L 177.03125 193.992188 C 177.03125 194.207031 176.910156 194.316406 176.804688 194.425781 C 176.707031 194.53125 176.488281 194.640625 176.261719 194.53125 L 160.785156 193.015625 C 160.457031 193.015625 160.121094 192.691406 160.121094 192.367188 C 159.257812 182.726562 158.832031 173.085938 158.617188 163.554688 C 158.390625 148.605469 159.160156 144.488281 161.542969 140.375 C 166.082031 132.574219 174.324219 128.890625 180.378906 127.160156 L 230.203125 127.160156 L 234.113281 124.777344 C 234.320312 124.667969 234.535156 124.667969 234.863281 124.777344 C 242.121094 128.457031 247.210938 133.546875 250.027344 139.832031 Z M 120.261719 377.914062 C 120.046875 377.589844 119.71875 377.371094 119.179688 377.371094 L 119.082031 377.371094 C 117.132812 377.371094 112.46875 379.324219 109.542969 383.222656 C 107.378906 386.253906 106.941406 389.722656 106.941406 391.996094 C 106.941406 392.429688 107.269531 392.753906 107.703125 392.644531 C 108.136719 392.644531 108.460938 392.320312 108.351562 391.886719 C 108.351562 389.828125 108.675781 386.6875 110.628906 383.980469 C 113.011719 380.621094 117.011719 378.996094 118.539062 378.78125 C 117.996094 379.429688 116.472656 380.949219 112.359375 384.195312 C 112.140625 384.414062 112.035156 384.628906 112.140625 384.957031 C 112.253906 385.171875 112.46875 385.386719 112.683594 385.496094 C 115.066406 386.039062 117.554688 387.121094 117.671875 387.988281 C 117.671875 388.3125 117.132812 388.964844 115.710938 390.15625 C 114.09375 391.5625 112.46875 392.753906 110.734375 393.945312 C 110.410156 394.164062 110.300781 394.59375 110.519531 394.921875 C 110.628906 395.136719 110.84375 395.246094 111.058594 395.246094 C 111.167969 395.246094 111.386719 395.246094 111.496094 395.136719 C 113.226562 393.945312 114.960938 392.644531 116.589844 391.238281 C 118.421875 389.613281 119.082031 388.855469 119.082031 387.988281 C 118.960938 386.148438 116.375 385.0625 114.417969 384.523438 C 120.585938 379.648438 120.707031 378.671875 120.261719 377.914062 Z M 504.789062 129.542969 C 504.789062 129.214844 504.464844 129 504.152344 128.890625 L 472.957031 126.945312 L 488.542969 97.371094 C 488.660156 97.15625 488.660156 97.046875 488.542969 96.832031 C 488.445312 96.617188 488.324219 96.503906 488.21875 96.394531 L 482.042969 93.253906 C 481.71875 93.144531 481.402344 93.144531 481.175781 93.472656 L 460.703125 122.285156 L 430.917969 118.167969 C 430.496094 118.058594 430.167969 118.382812 430.167969 118.820312 C 430.050781 119.25 430.375 119.578125 430.808594 119.578125 L 461.039062 123.800781 C 461.367188 123.800781 461.582031 123.695312 461.679688 123.472656 L 482.042969 94.878906 L 487.035156 97.371094 L 471.429688 126.835938 L 442.722656 123.800781 C 442.289062 123.800781 441.964844 124.015625 441.964844 124.453125 C 441.964844 124.882812 442.183594 125.210938 442.625 125.210938 L 471.871094 128.242188 L 503.609375 130.300781 L 504.691406 137.992188 L 474.460938 137.992188 L 420.625 138.207031 C 420.203125 138.207031 419.878906 138.53125 419.878906 138.964844 C 419.878906 139.398438 420.203125 139.722656 420.625 139.722656 L 474.460938 139.507812 L 505.546875 139.507812 C 505.777344 139.507812 505.992188 139.398438 506.089844 139.289062 C 506.199219 139.183594 506.316406 138.964844 506.316406 138.75 Z M 528.199219 457.746094 Z M 551.367188 498.796875 L 559.394531 535.625 C 559.394531 535.839844 559.394531 536.058594 559.273438 536.273438 C 559.164062 536.492188 558.949219 536.492188 558.730469 536.492188 L 546.277344 536.492188 C 545.949219 536.492188 545.625 536.273438 545.625 535.949219 L 535.660156 501.503906 L 529.0625 462.292969 L 524.070312 494.789062 L 525.585938 541.367188 C 525.585938 541.582031 525.488281 541.800781 525.371094 541.90625 C 525.273438 542.015625 525.046875 542.125 524.828125 542.125 L 512.914062 542.125 C 512.589844 542.125 512.273438 541.90625 512.15625 541.472656 L 505.871094 498.6875 L 508.160156 434.890625 C 508.160156 434.457031 508.484375 434.238281 508.90625 434.238281 C 509.339844 434.238281 509.566406 434.566406 509.566406 434.996094 L 507.171875 498.6875 L 513.359375 540.824219 L 523.863281 540.824219 L 522.335938 494.898438 L 528.078125 457.960938 L 528.078125 447.347656 C 528.078125 446.914062 528.402344 446.589844 528.835938 446.589844 C 529.28125 446.589844 529.605469 446.914062 529.605469 447.347656 L 529.605469 457.960938 L 529.605469 457.851562 C 529.605469 457.636719 529.484375 457.527344 529.378906 457.417969 L 529.605469 457.851562 L 529.605469 458.070312 L 529.605469 457.851562 L 536.960938 501.179688 L 546.707031 535.082031 L 557.769531 535.082031 L 549.957031 499.015625 L 547.25 435.863281 C 547.25 435.429688 547.574219 435.105469 547.898438 435.105469 C 548.332031 435.105469 548.660156 435.429688 548.660156 435.757812 Z M 577.480469 433.046875 C 577.480469 432.613281 577.039062 432.398438 576.722656 432.398438 C 576.28125 432.398438 576.0625 432.832031 576.0625 433.15625 C 577.578125 448.210938 576.28125 449.730469 576.0625 449.835938 C 575.953125 449.835938 574.558594 449.621094 570.222656 439.980469 C 570.105469 439.65625 569.78125 439.546875 569.5625 439.546875 C 569.238281 439.546875 569.023438 439.765625 568.914062 440.089844 C 568.601562 441.28125 568.273438 442.148438 568.058594 442.6875 C 567.9375 441.496094 567.832031 439.003906 568.15625 433.699219 C 568.15625 433.265625 567.832031 432.941406 567.515625 432.941406 C 567.074219 432.832031 566.746094 433.265625 566.746094 433.589844 C 566.207031 444.636719 566.976562 444.746094 567.734375 444.855469 C 568.371094 444.964844 568.914062 444.53125 569.683594 442.253906 C 573.148438 449.835938 574.773438 451.355469 575.953125 451.355469 L 576.28125 451.355469 C 577.808594 450.921875 578.988281 448.429688 577.480469 433.046875 Z M 395.507812 108.203125 C 394.304688 106.90625 392.355469 106.363281 389.648438 106.46875 C 389.214844 106.578125 385.421875 107.445312 385.316406 113.078125 C 385.21875 119.578125 385.316406 128.566406 385.316406 128.671875 C 385.316406 129 385.097656 129.324219 384.675781 129.429688 L 356.609375 132.789062 C 350.339844 132.902344 346.863281 133.117188 345.019531 133.332031 C 346.644531 133.65625 349.570312 133.984375 354.554688 134.527344 C 354.890625 134.527344 355.09375 134.847656 355.214844 135.171875 C 355.214844 135.5 355.09375 135.824219 354.769531 135.929688 C 354.445312 136.039062 354.011719 136.253906 353.804688 136.367188 C 354.226562 136.367188 354.554688 136.253906 354.988281 136.253906 C 355.851562 136.152344 356.71875 136.039062 357.597656 135.929688 C 358.886719 135.824219 359.96875 135.714844 361.050781 135.714844 C 363.976562 135.714844 366.261719 136.152344 368.851562 136.691406 C 371.679688 137.234375 374.808594 137.882812 379.683594 138.097656 L 379.898438 138.097656 C 386.183594 138.316406 389.429688 138.421875 391.597656 136.582031 C 393.125 135.28125 393.339844 133.761719 395.171875 122.609375 C 396.6875 112.320312 397.011719 109.828125 395.507812 108.203125 Z M 383.050781 101.59375 C 381.96875 101.488281 380.34375 101.050781 378.925781 99.753906 C 378.175781 99.101562 377.636719 98.238281 377.191406 97.371094 L 377.191406 97.15625 C 377.191406 96.933594 376.976562 95.851562 376.011719 95.09375 C 374.925781 94.335938 373.84375 94.664062 373.507812 94.769531 C 372.21875 95.636719 370.152344 96.71875 367.441406 97.046875 C 365.386719 97.261719 363.652344 96.933594 362.253906 96.503906 C 362.675781 98.453125 363.433594 100.296875 364.636719 101.917969 C 365.503906 103.21875 367.441406 105.820312 371.015625 106.683594 C 373.726562 107.335938 376.214844 106.578125 377.417969 106.035156 C 377.515625 106.035156 377.636719 105.925781 377.734375 105.925781 C 377.839844 105.925781 377.960938 105.925781 378.058594 106.035156 C 378.273438 106.140625 378.382812 106.363281 378.382812 106.46875 L 379.585938 111.667969 C 380.550781 111.558594 381.96875 111.238281 383.050781 110.042969 C 384.675781 108.203125 384.773438 104.628906 383.050781 101.59375 Z M 396.472656 107.226562 C 398.539062 109.390625 398.097656 112.535156 396.375 122.714844 C 394.425781 134.304688 394.089844 135.929688 392.257812 137.449219 C 390.417969 139.074219 388.132812 139.507812 384.558594 139.507812 C 383.148438 139.507812 381.523438 139.398438 379.585938 139.398438 L 379.359375 139.398438 C 374.386719 139.179688 371.136719 138.53125 368.308594 137.988281 C 364.84375 137.234375 362.253906 136.691406 357.597656 137.234375 C 356.71875 137.339844 355.851562 137.449219 354.988281 137.554688 C 351.738281 137.988281 350.554688 138.207031 350.339844 137.234375 C 350.21875 136.691406 350.4375 136.253906 351.640625 135.714844 C 341.445312 134.628906 341.445312 134.089844 341.445312 133.332031 C 341.445312 132.464844 341.554688 131.816406 356.394531 131.492188 L 383.800781 128.242188 C 383.800781 126.074219 383.691406 118.710938 383.800781 113.183594 C 383.800781 112.320312 383.917969 111.558594 384.132812 110.800781 C 384.015625 110.910156 383.917969 111.125 383.800781 111.238281 C 382.175781 112.96875 379.898438 113.183594 378.71875 113.292969 C 378.382812 113.292969 378.058594 113.078125 378.058594 112.75 L 376.976562 107.765625 C 375.351562 108.308594 373.085938 108.746094 370.476562 108.09375 C 366.359375 107.121094 364.195312 104.085938 363.21875 102.789062 C 361.714844 100.726562 360.726562 98.128906 360.402344 95.53125 C 360.402344 95.308594 360.511719 94.988281 360.726562 94.878906 C 360.945312 94.769531 361.171875 94.664062 361.386719 94.769531 C 362.570312 95.308594 364.636719 95.851562 367.007812 95.636719 C 369.511719 95.421875 371.34375 94.335938 372.542969 93.582031 C 372.542969 93.582031 372.640625 93.46875 372.761719 93.46875 C 373.085938 93.363281 374.925781 92.824219 376.648438 93.90625 C 378.058594 94.878906 378.382812 96.289062 378.503906 96.828125 C 378.816406 97.585938 379.261719 98.128906 379.800781 98.671875 C 381.089844 99.863281 382.605469 100.078125 383.472656 100.183594 C 383.691406 100.183594 383.917969 100.296875 384.015625 100.511719 C 385.421875 102.789062 385.964844 105.28125 385.542969 107.550781 C 387.167969 105.386719 389.429688 105.058594 389.429688 105.058594 L 389.550781 105.058594 C 392.679688 104.953125 394.964844 105.601562 396.472656 107.226562 Z M 44.558594 393.507812 L 44.558594 403.691406 C 44.558594 404.125 44.882812 404.449219 45.316406 404.449219 C 45.746094 404.449219 46.074219 404.125 46.074219 403.691406 L 46.074219 393.074219 C 46.074219 392.75 45.855469 392.535156 45.640625 392.425781 C 44.34375 391.882812 43.476562 390.585938 43.691406 389.285156 C 43.800781 388.308594 44.558594 387.441406 45.53125 387.011719 C 48.023438 386.683594 50.40625 385.925781 52.570312 384.734375 C 55.28125 383.21875 57.230469 381.269531 58.53125 379.535156 C 58.640625 380.621094 58.640625 381.59375 58.640625 382.675781 C 58.746094 388.527344 58.746094 391.667969 56.796875 393.941406 C 55.933594 395.027344 54.632812 395.785156 53.007812 396.324219 C 52.683594 396.433594 52.464844 396.648438 52.464844 396.976562 L 52.464844 403.800781 C 52.464844 404.234375 52.789062 404.558594 53.222656 404.558594 C 53.65625 404.558594 53.980469 404.234375 53.980469 403.800781 L 53.980469 397.515625 C 55.605469 396.976562 56.90625 396 57.882812 394.917969 C 60.265625 392.101562 60.265625 388.308594 60.152344 382.675781 C 60.152344 380.945312 60.046875 379.210938 59.828125 377.476562 C 59.828125 377.152344 59.613281 376.9375 59.285156 376.828125 C 58.964844 376.71875 58.640625 376.9375 58.53125 377.152344 C 57.445312 378.996094 55.390625 381.703125 51.925781 383.542969 C 49.863281 384.628906 47.699219 385.386719 45.316406 385.710938 L 45.101562 385.710938 C 43.582031 386.25 42.496094 387.660156 42.28125 389.175781 C 41.851562 390.800781 42.824219 392.535156 44.558594 393.507812 Z M 199.777344 57.832031 L 198.574219 67.367188 C 198.574219 67.796875 198.792969 68.121094 199.238281 68.121094 C 199.550781 68.121094 199.996094 67.90625 199.996094 67.46875 L 201.175781 57.507812 C 201.175781 57.289062 201.078125 56.964844 200.957031 56.855469 C 199.777344 55.992188 198.792969 54.796875 198.25 53.605469 C 195.660156 48.625 198.46875 42.882812 199.550781 40.828125 C 201.71875 42.667969 203.992188 44.292969 206.492188 45.703125 C 208.660156 46.890625 210.925781 47.867188 213.316406 48.625 C 213.535156 50.25 213.414062 51.875 212.875 53.285156 C 212.117188 55.769531 210.707031 57.394531 209.625 58.261719 C 209.40625 58.375 209.40625 58.589844 209.40625 58.804688 L 209.839844 67.367188 C 209.839844 67.796875 210.164062 68.011719 210.609375 68.011719 C 211.03125 68.011719 211.25 67.6875 211.25 67.253906 L 210.828125 59.019531 C 212.007812 57.9375 213.414062 56.207031 214.28125 53.605469 C 214.824219 51.765625 215.039062 49.707031 214.714844 47.757812 C 214.714844 47.542969 214.5 47.328125 214.28125 47.214844 C 211.910156 46.460938 209.527344 45.480469 207.359375 44.183594 C 204.75 42.773438 202.257812 40.933594 200.09375 38.980469 C 199.996094 38.875 199.777344 38.765625 199.550781 38.765625 C 199.332031 38.765625 199.117188 38.875 199.007812 39.09375 C 198.46875 39.960938 193.703125 47.433594 197.167969 54.042969 C 197.613281 55.664062 198.574219 56.855469 199.777344 57.832031 Z M 65.464844 512.441406 L 60.910156 471.714844 C 55.605469 469.980469 50.078125 469.007812 44.558594 468.789062 C 38.164062 468.464844 31.886719 469.113281 25.707031 470.632812 L 25.0625 517.859375 L 17.042969 556.09375 L 27.226562 556.09375 L 37.625 523.273438 C 37.949219 521.757812 44.773438 484.820312 45.316406 482.980469 C 45.425781 482.65625 45.855469 482.328125 46.183594 482.4375 C 46.507812 482.546875 46.828125 482.980469 46.726562 483.304688 C 46.613281 483.847656 45.855469 487.3125 44.988281 492.1875 L 50.40625 514.609375 L 50.40625 561.078125 L 59.285156 561.078125 Z M 62.320312 471.171875 L 66.867188 512.441406 L 66.867188 512.660156 L 60.695312 561.941406 C 60.695312 562.269531 60.371094 562.59375 59.9375 562.59375 L 49.648438 562.59375 C 49.214844 562.59375 48.890625 562.269531 48.890625 561.835938 L 48.890625 514.933594 L 44.015625 495.761719 C 42.390625 504.535156 40.117188 516.125 38.707031 523.707031 L 28.199219 557.175781 C 28.09375 557.503906 27.875 557.71875 27.554688 557.71875 L 16.179688 557.71875 C 15.960938 557.71875 15.742188 557.609375 15.636719 557.503906 C 15.527344 557.285156 15.417969 557.070312 15.527344 556.960938 L 23.761719 517.964844 L 24.410156 470.414062 C 24.410156 470.089844 24.625 469.765625 24.949219 469.765625 C 31.449219 468.03125 38.058594 467.382812 44.773438 467.707031 C 50.621094 468.03125 56.363281 469.113281 61.890625 470.847656 C 62.105469 470.632812 62.214844 470.847656 62.320312 471.171875 Z M 14.121094 469.222656 C 13.578125 469.871094 13.035156 470.523438 12.605469 471.28125 C 11.304688 473.230469 10.871094 474.964844 10.4375 476.15625 C 10.113281 477.238281 9.894531 477.996094 9.140625 477.996094 C 8.917969 477.996094 8.703125 477.886719 8.488281 477.671875 C 7.515625 476.589844 7.078125 471.605469 7.1875 467.597656 C 7.292969 464.890625 7.730469 462.183594 8.488281 459.472656 C 8.597656 459.148438 9.027344 458.824219 9.355469 458.933594 C 9.785156 459.042969 10.003906 459.472656 9.894531 459.800781 C 9.246094 462.398438 8.8125 465 8.703125 467.597656 C 8.488281 471.066406 8.917969 474.097656 9.246094 475.613281 C 9.570312 474.421875 10.222656 472.582031 11.519531 470.523438 C 12.167969 469.441406 13.035156 468.464844 13.902344 467.488281 C 14.011719 467.382812 14.335938 467.273438 14.554688 467.273438 C 14.769531 467.273438 14.988281 467.488281 15.097656 467.597656 C 15.636719 468.574219 15.960938 469.007812 16.179688 469.332031 C 16.394531 468.574219 16.5 466.515625 15.742188 460.234375 C 15.742188 459.800781 15.960938 459.472656 16.394531 459.472656 C 16.828125 459.367188 17.152344 459.691406 17.152344 460.125 C 18.34375 469.765625 17.585938 470.738281 16.609375 471.066406 C 15.527344 471.171875 14.875 470.414062 14.121094 469.222656 " fill-opacity="1" fill-rule="nonzero"/><path fill="#f97316" d="M 528.195312 367.191406 C 524.730469 367.949219 518.449219 368.707031 510.964844 367.082031 C 502.742188 365.242188 496.992188 361.234375 494.175781 358.957031 L 508.160156 336.210938 L 499.050781 329.929688 C 492.234375 336.210938 487.785156 342.277344 485.074219 346.71875 C 480.863281 353.328125 478.578125 356.902344 479.238281 361.558594 C 479.996094 367.40625 484.871094 371.199219 489.949219 374.988281 C 493.199219 377.480469 499.050781 381.273438 507.714844 383.332031 C 508.160156 400.554688 508.582031 417.882812 509.121094 435.105469 C 513.996094 436.621094 521.039062 438.140625 529.605469 438.246094 C 538.488281 438.246094 545.851562 436.621094 550.824219 435.105469 L 550.824219 390.695312 C 552.894531 391.5625 556.242188 393.296875 559.394531 396.761719 C 562.199219 399.792969 563.605469 402.71875 564.484375 404.777344 C 565.121094 414.417969 565.773438 424.167969 566.433594 433.804688 L 578.890625 433.265625 C 578.769531 429.796875 578.566406 424.925781 577.902344 419.074219 C 576.496094 407.050781 575.195312 396.003906 568.371094 385.0625 C 565.449219 380.296875 561.65625 374.230469 553.976562 370.441406 C 546.816406 366.972656 539.992188 367.191406 536.527344 367.515625 C 535.875 369.355469 534.035156 370.550781 532.195312 370.441406 C 530.246094 370.007812 528.738281 368.816406 528.195312 367.191406 Z M 53.105469 403.585938 L 80.511719 412.792969 L 107.046875 391.453125 L 112.03125 395.027344 C 107.265625 402.285156 102.714844 408.027344 99.25 412.25 C 92.316406 420.484375 89.285156 422.648438 85.601562 423.515625 C 83.433594 424.058594 80.835938 423.839844 75.636719 423.515625 C 70.546875 423.191406 66.320312 422.648438 63.289062 422.109375 C 62.636719 429.367188 62.3125 437.164062 62.3125 445.503906 C 62.3125 454.601562 62.636719 463.160156 63.289062 470.960938 C 57.113281 471.285156 50.398438 471.394531 43.25 471.175781 C 36.855469 470.960938 30.792969 470.527344 25.15625 469.984375 C 26.136719 463.703125 26.894531 456.769531 27.21875 449.078125 C 27.542969 441.714844 27.433594 434.996094 27.003906 428.933594 C 24.183594 433.914062 21.261719 438.898438 18.441406 443.773438 L 17.46875 460.019531 L 8.152344 459.585938 C 7.9375 453.738281 8.480469 445.289062 11.617188 435.648438 C 16.710938 420.265625 25.917969 410.410156 30.898438 405.753906 L 45.308594 403.695312 C 45.417969 403.910156 46.714844 405.644531 49.097656 405.753906 C 51.480469 405.753906 53 403.800781 53.105469 403.585938 " fill-opacity="1" fill-rule="nonzero"/></svg>